{"title":"2012.(2009).XViD.EN","uid":5240609,"size":1575288027,"categoryP":"video","categoryS":"movies","magnet":"?xt=urn:btih:a058376f686dadc3b26a0c8f732bcfa3a2c06d9c&amp;dn=2012.%282009%29.XViD.EN&amp;tr=udp%3A%2F%2Ftracker.openbittorrent.com%3A80&amp;tr=udp%3A%2F%2Fopen.demonii.com%3A1337&amp;tr=udp%3A%2F%2Ftracker.coppersurfer.tk%3A6969&amp;tr=udp%3A%2F%2Fexodus.desync.com%3A6969","seeders":0,"leechers":0,"uploader":"decruzze","files":1,"time":1261746238,"description":"Screens: &lt;a href=&quot;\nhttp://lookp*c.com/i/401/GaPZ9NSA.jpeg&quot; rel=&quot;nofollow&quot; target=&quot;_NEW&quot;&gt;\nhttp://lookp*c.com/i/401/GaPZ9NSA.jpeg&lt;/a&gt; &lt;a href=&quot;\nhttp://lookp*c.com/i/834/nIptkzZq.jpeg&quot; rel=&quot;nofollow&quot; target=&quot;_NEW&quot;&gt;\nhttp://lookp*c.com/i/834/nIptkzZq.jpeg&lt;/a&gt; &lt;a href=&quot;\nhttp://lookp*c.com/i/167/FVFrnGBQ.jpeg&quot; rel=&quot;nofollow&quot; target=&quot;_NEW&quot;&gt;\nhttp://lookp*c.com/i/167/FVFrnGBQ.jpeg&lt;/a&gt;\n\n(*=i)\n\n&quot;Dr. Adrian Helmsley, part of a worldwide geophysical team investigating the effect on the earth of radiation from unprecedented solar storms, learns that the earth's core is heating up. He warns U.S. President Thomas Wilson that the crust of the earth is becoming unstable and that without proper preparations for saving a fraction of the world's population, the entire race is doomed. Meanwhile, writer Jackson Curtis stumbles on the same information. While the world's leaders race to build &quot;arks&quot; to escape the impending cataclysm, Curtis struggles to find a way to save his family. Meanwhile, volcanic eruptions and earthquakes of unprecedented strength wreak havoc around the world.&quot;&quot;\n\n\nFormat : AVI\nFormat/Info : Audio Video Interleave\nFile size : 1.37 GiB -1CD\nDuration : 2h 31mn\nOverall bit rate : 1 293 Kbps\nWriting application : VirtualDubMod 1.5.10.2 (build 2542/release)\nWriting library : VirtualDubMod build 2542/release\n\n\nVideo\nID : 0\nFormat : MPEG-4 Visual\nFormat profile : AdvancedSimple[@]L5\nFormat settings, BVOP : Yes\nFormat settings, QPel : No\nFormat settings, GMC : No warppoints\nFormat settings, Matrix : Default (H.263)\nCodec ID : XVID\nCodec ID/Hint : XviD\nDuration : 2h 31mn\nBit rate : 1 163 Kbps\nWidth : 640 pixels\nHeight : 272 pixels\nDisplay aspect ratio : 2.35:1\nFrame rate : 25.000 fps\nResolution : 24 bits\nColorimetry : 4:2:0\nScan type : Progressive\nBits/(Pixel*Frame) : 0.267\nStream size : 1.23 GiB (90%)\nWriting library : XviD 1.2.1 (UTC 2008-12-04)\n\nAudio\nID : 1\nFormat : MPEG Audio\nFormat version : Version 1\nFormat profile : Layer 3\nCodec ID : 55\nCodec ID/Hint : MP3\nDuration : 2h 31mn\nBit rate mode : Variable\nBit rate : 117 Kbps\nChannel(s) : 2 channels\nSampling rate : 48.0 KHz\nResolution : 16 bits\nStream size : 127 MiB (9%)\nAlignment : Aligned on interleaves\nInterleave, duration : 24 ms (0.60 video frame)\nInterleave, preload duration : 163 ms","torrent":{"xt":"urn:btih:a058376f686dadc3b26a0c8f732bcfa3a2c06d9c","amp;dn":"2012.%282009%29.XViD.EN","amp;tr":["udp%3A%2F%2Ftracker.openbittorrent.com%3A80","udp%3A%2F%2Fopen.demonii.com%3A1337","udp%3A%2F%2Ftracker.coppersurfer.tk%3A6969","udp%3A%2F%2Fexodus.desync.com%3A6969"],"infoHash":"a058376f686dadc3b26a0c8f732bcfa3a2c06d9c","infoHashBuffer":{"type":"Buffer","data":[160,88,55,111,104,109,173,195,178,106,12,143,115,43,207,163,162,192,109,156]},"announce":[],"urlList":[]}}